HIERARCHY
ROOT hip
{
  OFFSET 0 0 0
  CHANNELS 6 Xposition Yposition Zposition Zrotation Yrotation Xrotation
  JOINT abdomen
  {
    OFFSET 0 20.6881 -0.73152
    CHANNELS 3 Zrotation Xrotation Yrotation
    JOINT chest
    {
      OFFSET 0 11.7043 -0.48768
      CHANNELS 3 Zrotation Xrotation Yrotation
      JOINT neck
      {
        OFFSET 0 22.1894 -2.19456
        CHANNELS 3 Zrotation Xrotation Yrotation
        JOINT head
        {
          OFFSET -0.24384 7.07133 1.2192
          CHANNELS 3 Zrotation Xrotation Yrotation
          JOINT leftEye
          {
            OFFSET 4.14528 8.04674 8.04672
            CHANNELS 3 Zrotation Xrotation Yrotation
            End Site
            {
              OFFSET 1 0 0
            }
          }
          JOINT rightEye
          {
            OFFSET -3.6576 8.04674 8.04672
            CHANNELS 3 Zrotation Xrotation Yrotation
            End Site
            {
              OFFSET 1 0 0
            }
          }
        }
      }
      JOINT rCollar
      {
        OFFSET -2.68224 19.2634 -4.8768
        CHANNELS 3 Zrotation Xrotation Yrotation
        JOINT rShldr
        {
          OFFSET -8.77824 -1.95073 1.46304
          CHANNELS 3 Zrotation Xrotation Yrotation
          JOINT rForeArm
          {
            OFFSET -28.1742 -1.7115 0.48768
            CHANNELS 3 Zrotation Xrotation Yrotation
            JOINT rHand
            {
              OFFSET -22.5879 0.773209 7.07136
              CHANNELS 3 Zrotation Xrotation Yrotation
              JOINT rThumb1
              {
                OFFSET -1.2192 -0.487915 3.41376
                CHANNELS 3 Zrotation Xrotation Yrotation
                JOINT rThumb2
                {
                  OFFSET -3.37035 -0.52449 3.41376
                  CHANNELS 3 Zrotation Xrotation Yrotation
                  End Site
                  {
                    OFFSET -1.78271 -1.18214 1.43049
                  }
                }
              }
              JOINT rIndex1
              {
                OFFSET -7.75947 0.938293 5.60832
                CHANNELS 3 Zrotation Xrotation Yrotation
                JOINT rIndex2
                {
                  OFFSET -2.54057 -0.884171 1.56538
                  CHANNELS 3 Zrotation Xrotation Yrotation
                  End Site
                  {
                    OFFSET -1.62519 -0.234802 1.16502
                  }
                }
              }
              JOINT rMid1
              {
                OFFSET -8.24714 1.18213 3.41376
                CHANNELS 3 Zrotation Xrotation Yrotation
                JOINT rMid2
                {
                  OFFSET -3.10165 -0.590103 1.0647
                  CHANNELS 3 Zrotation Xrotation Yrotation
                  End Site
                  {
                    OFFSET -2.48547 -0.328903 0.83742
                  }
                }
              }
              JOINT rRing1
              {
                OFFSET -8.82822 0.546677 1.51678
                CHANNELS 3 Zrotation Xrotation Yrotation
                JOINT rRing2
                {
                  OFFSET -2.60934 -0.819778 -0.0198488
                  CHANNELS 3 Zrotation Xrotation Yrotation
                  End Site
                  {
                    OFFSET -2.33842 -0.294052 0.168128
                  }
                }
              }
              JOINT rPinky1
              {
                OFFSET -8.27202 -0.0477905 -0.4584
                CHANNELS 3 Zrotation Xrotation Yrotation
                JOINT rPinky2
                {
                  OFFSET -1.82734 -0.647385 -0.700984
                  CHANNELS 3 Zrotation Xrotation Yrotation
                  End Site
                  {
                    OFFSET -1.69225 -0.51767 -0.607171
                  }
                }
              }
            }
          }
        }
      }
      JOINT lCollar
      {
        OFFSET 2.68224 19.2634 -4.8768
        CHANNELS 3 Zrotation Xrotation Yrotation
        JOINT lShldr
        {
          OFFSET 8.77824 -1.95073 1.46304
          CHANNELS 3 Zrotation Xrotation Yrotation
          JOINT lForeArm
          {
            OFFSET 28.1742 -1.7115 0.48768
            CHANNELS 3 Zrotation Xrotation Yrotation
            JOINT lHand
            {
              OFFSET 22.5879 0.773209 7.07136
              CHANNELS 3 Zrotation Xrotation Yrotation
              JOINT lThumb1
              {
                OFFSET 1.2192 -0.487915 3.41376
                CHANNELS 3 Zrotation Xrotation Yrotation
                JOINT lThumb2
                {
                  OFFSET 3.37035 -0.52449 3.41376
                  CHANNELS 3 Zrotation Xrotation Yrotation
                  End Site
                  {
                    OFFSET 1.78271 -1.18214 1.43049
                  }
                }
              }
              JOINT lIndex1
              {
                OFFSET 7.75947 0.938293 5.60832
                CHANNELS 3 Zrotation Xrotation Yrotation
                JOINT lIndex2
                {
                  OFFSET 2.54057 -0.884171 1.56538
                  CHANNELS 3 Zrotation Xrotation Yrotation
                  End Site
                  {
                    OFFSET 1.62519 -0.234802 1.16502
                  }
                }
              }
              JOINT lMid1
              {
                OFFSET 8.24714 1.18213 3.41376
                CHANNELS 3 Zrotation Xrotation Yrotation
                JOINT lMid2
                {
                  OFFSET 3.10165 -0.590103 1.0647
                  CHANNELS 3 Zrotation Xrotation Yrotation
                  End Site
                  {
                    OFFSET 2.48547 -0.328903 0.83742
                  }
                }
              }
              JOINT lRing1
              {
                OFFSET 8.82822 0.546677 1.51678
                CHANNELS 3 Zrotation Xrotation Yrotation
                JOINT lRing2
                {
                  OFFSET 2.60934 -0.819778 -0.0198488
                  CHANNELS 3 Zrotation Xrotation Yrotation
                  End Site
                  {
                    OFFSET 2.33842 -0.294052 0.168128
                  }
                }
              }
              JOINT lPinky1
              {
                OFFSET 8.27202 -0.0477905 -0.4584
                CHANNELS 3 Zrotation Xrotation Yrotation
                JOINT lPinky2
                {
                  OFFSET 1.82734 -0.647385 -0.700984
                  CHANNELS 3 Zrotation Xrotation Yrotation
                  End Site
                  {
                    OFFSET 1.69225 -0.51767 -0.607171
                  }
                }
              }
            }
          }
        }
      }
    }
  }
  JOINT rButtock
  {
    OFFSET -8.77824 4.35084 1.2192
    CHANNELS 3 Zrotation Xrotation Yrotation
    JOINT rThigh
    {
      OFFSET 0 -1.70687 -2.19456
      CHANNELS 3 Zrotation Xrotation Yrotation
      JOINT rShin
      {
        OFFSET 0 -36.8199 0.73152
        CHANNELS 3 Zrotation Xrotation Yrotation
        JOINT rFoot
        {
          OFFSET 0.73152 -45.1104 -5.12064
          CHANNELS 3 Zrotation Xrotation Yrotation
          End Site
          {
            OFFSET -1.1221 -3.69964 12.103
          }
        }
      }
    }
  }
  JOINT lButtock
  {
    OFFSET 8.77824 4.35084 1.2192
    CHANNELS 3 Zrotation Xrotation Yrotation
    JOINT lThigh
    {
      OFFSET 0 -1.70687 -2.19456
      CHANNELS 3 Zrotation Xrotation Yrotation
      JOINT lShin
      {
        OFFSET 0 -36.8199 0.73152
        CHANNELS 3 Zrotation Xrotation Yrotation
        JOINT lFoot
        {
          OFFSET -0.73152 -45.1104 -5.12064
          CHANNELS 3 Zrotation Xrotation Yrotation
          End Site
          {
            OFFSET 1.1221 -3.69964 12.103
          }
        }
      }
    }
  }
}
MOTION
Frames:	4
Frame Time:	0.00833333
135.439 89.7172 -35.3828 -645.698 -86.0264 659.743 -6.33957 27.717 -5.18064 -2.20835 -3.38855 -1.95374 3.01664 22.9603 0.736812 4.45045 -61.3349 3.694 -0.0 0.0 0.0 -0.0 0.0 0.0 -7.16275e-14 8.36419e-13 -8.53881e-15 83.7265 24.5006 0.242315 -13.2481 -6.36344 24.053 -0.0260695 4.60429 0.648502 1.05003e-09 -1.18201e-10 -1.12021e-09 1.80727e-09 -2.02897e-10 -1.94019e-09 1.05004e-09 -1.18193e-10 -1.12023e-09 7.73091 5.47488 0.417314 1.05003e-09 -1.18198e-10 -1.12021e-09 2.90554 0.965183 0.102902 1.05004e-09 -1.18196e-10 -1.12021e-09 10.2786 0.731801 0.0259123 1.05003e-09 -1.18196e-10 -1.1202e-09 2.22167 -0.733487 -0.20892 -7.17756e-14 8.36421e-13 -8.82379e-15 -80.3117 22.4742 2.54311 13.707 -6.72043 -24.9663 0.520814 -20.0676 2.9429 9.38016e-10 -9.24354e-11 1.47747e-09 1.60177e-09 -1.50678e-10 2.56498e-09 9.38013e-10 -9.24339e-11 1.47748e-09 -7.73091 5.47488 -0.417314 9.38016e-10 -9.24354e-11 1.47747e-09 -2.90554 0.965183 -0.102902 9.38004e-10 -9.24361e-11 1.47747e-09 -10.2786 0.731801 -0.0259123 9.38022e-10 -9.2435e-11 1.47746e-09 -2.22167 -0.733487 0.20892 -2.03217e-16 0.0 -3.88251e-19 -9.02982 -55.1068 -3.86506 -0.190523 26.6093 0.516782 10.0974 26.8211 -26.1838 2.03217e-16 0.0 3.88251e-19 -7.5405 -5.08857 15.6202 -0.13227 12.5053 -1.34753 3.7204 24.8305 -6.9522
134.241 89.4808 -35.3744 -648.888 -85.6136 662.802 -6.56276 27.6722 -5.33621 -2.11281 -3.31147 -2.01094 3.03372 22.9719 0.693282 4.25571 -61.2945 3.49023 -0.0 0.0 0.0 -0.0 0.0 0.0 -6.59267e-14 8.09997e-13 -6.21202e-15 83.7223 24.3247 0.173458 -13.1906 -6.3195 23.9394 -0.0271797 4.7009 0.662169 1.24686e-09 7.82576e-11 -2.32735e-09 2.14083e-09 1.37034e-10 -4.02902e-09 1.24686e-09 7.82651e-11 -2.32737e-09 7.73091 5.47488 0.417314 1.24686e-09 7.82607e-11 -2.32735e-09 2.90554 0.965183 0.102902 1.24686e-09 7.8264e-11 -2.32735e-09 10.2786 0.731801 0.0259123 1.24685e-09 7.82647e-11 -2.32735e-09 2.22167 -0.733487 -0.20892 -6.60707e-14 8.09997e-13 -6.5102e-15 -80.4095 22.5593 2.67256 13.7221 -6.73236 -24.9965 0.519745 -20.0481 2.93978 1.07583e-09 -4.3774e-11 2.68271e-09 1.8248e-09 -6.294e-11 4.65067e-09 1.07583e-09 -4.37728e-11 2.68272e-09 -7.73091 5.47488 -0.417314 1.07583e-09 -4.37748e-11 2.68272e-09 -2.90554 0.965183 -0.102902 1.07582e-09 -4.37752e-11 2.68271e-09 -10.2786 0.731801 -0.0259123 1.07584e-09 -4.37732e-11 2.68271e-09 -2.22167 -0.733487 0.20892 -2.03217e-16 0.0 -3.88251e-19 -9.52082 -54.9801 -4.15551 -0.192657 27.1244 0.544931 10.2253 27.0536 -26.268 2.03217e-16 0.0 3.88251e-19 -7.8447 -3.84242 15.2466 -0.142088 11.6331 -1.36375 3.58673 25.5806 -6.44464
133.041 89.1795 -35.3758 -651.791 -85.1964 665.584 -6.71926 27.5943 -5.49912 -2.02474 -3.22511 -2.06692 3.04387 22.9789 0.643041 4.07104 -61.2267 3.27691 -0.0 0.0 0.0 -0.0 0.0 0.0 -2.11725e-14 5.39443e-13 1.67068e-14 83.7279 24.1633 0.0787775 -13.1368 -6.27854 23.833 -0.0282903 4.79559 0.675571 1.40818e-09 2.82885e-10 -3.85041e-09 2.41214e-09 4.9038e-10 -6.66445e-09 1.40819e-09 2.82891e-10 -3.85042e-09 7.73091 5.47488 0.417314 1.40819e-09 2.82888e-10 -3.85041e-09 2.90554 0.965183 0.102902 1.40819e-09 2.82891e-10 -3.85041e-09 10.2786 0.731801 0.0259123 1.40818e-09 2.82892e-10 -3.85041e-09 2.22167 -0.733487 -0.20892 -2.13316e-14 5.39445e-13 1.6423e-14 -80.51 22.6298 2.82283 13.7367 -6.74393 -25.0258 0.519111 -20.0365 2.93793 1.08627e-09 -1.41884e-10 4.0792e-09 1.82641e-09 -2.31252e-10 7.0656e-09 1.08627e-09 -1.41882e-10 4.07921e-09 -7.73091 5.47488 -0.417314 1.08627e-09 -1.41884e-10 4.07921e-09 -2.90554 0.965183 -0.102902 1.08626e-09 -1.41884e-10 4.07921e-09 -10.2786 0.731801 -0.0259123 1.08628e-09 -1.41882e-10 4.0792e-09 -2.22167 -0.733487 0.20892 -2.03217e-16 0.0 -3.88251e-19 -9.91254 -54.825 -4.32529 -0.197001 27.7778 0.565157 10.2578 27.0651 -26.3609 2.03217e-16 0.0 3.88251e-19 -8.02483 -2.84214 14.8697 -0.147666 11.235 -1.3802 3.38769 26.1348 -5.89895
131.825 88.8551 -35.3771 -654.396 -84.7767 668.077 -6.8329 27.49 -5.66895 -1.94183 -3.13151 -2.12274 3.04956 22.9846 0.587309 3.88976 -61.1408 3.05356 -0.0 0.0 0.0 -0.0 0.0 0.0 4.93425e-14 1.12666e-13 5.34265e-14 83.74 24.0093 -0.0345382 -13.0852 -6.23942 23.731 -0.0293779 4.88709 0.688522 1.55505e-09 5.09816e-10 -5.65694e-09 2.65741e-09 8.81849e-10 -9.79037e-09 1.55505e-09 5.09821e-10 -5.65695e-09 7.73091 5.47488 0.417314 1.55505e-09 5.09819e-10 -5.65694e-09 2.90554 0.965183 0.102902 1.55505e-09 5.09821e-10 -5.65694e-09 10.2786 0.731801 0.0259123 1.55504e-09 5.09822e-10 -5.65694e-09 2.22167 -0.733487 -0.20892 4.91585e-14 1.12671e-13 5.31749e-14 -80.6138 22.6937 2.99103 13.7515 -6.75564 -25.0555 0.518644 -20.0279 2.93656 1.01872e-09 -3.25992e-10 5.67791e-09 1.69141e-09 -5.49487e-10 9.82933e-09 1.01872e-09 -3.2599e-10 5.67792e-09 -7.73091 5.47488 -0.417314 1.01872e-09 -3.25991e-10 5.67792e-09 -2.90554 0.965183 -0.102902 1.01872e-09 -3.25992e-10 5.67792e-09 -10.2786 0.731801 -0.0259123 1.01873e-09 -3.25989e-10 5.67791e-09 -2.22167 -0.733487 0.20892 -2.03217e-16 0.0 -3.88251e-19 -10.2298 -54.6411 -4.37974 -0.203308 28.5661 0.581234 10.2015 26.9198 -26.4189 2.03217e-16 0.0 3.88251e-19 -8.12122 -2.00379 14.4775 -0.150929 11.157 -1.39703 3.13584 26.5574 -5.30838
